<?xml version="1.0" encoding="UTF-8" standalone="no"?>
<!-- Created with Inkscape (http://www.inkscape.org/) -->

<svg
   xmlns:dc="http://purl.org/dc/elements/1.1/"
   xmlns:cc="http://creativecommons.org/ns#"
   xmlns:rdf="http://www.w3.org/1999/02/22-rdf-syntax-ns#"
   xmlns:svg="http://www.w3.org/2000/svg"
   xmlns="http://www.w3.org/2000/svg"
   xmlns:sodipodi="http://sodipodi.sourceforge.net/DTD/sodipodi-0.dtd"
   xmlns:inkscape="http://www.inkscape.org/namespaces/inkscape"
   viewBox="0 0 59.868885 84.04249"
   id="svg2"
   version="1.1"
   inkscape:version="0.91 r13725"
   sodipodi:docname="mappin.svg">
  <defs
     id="defs4" />
  <sodipodi:namedview
     id="base"
     pagecolor="#ffffff"
     bordercolor="#666666"
     borderopacity="1.0"
     inkscape:pageopacity="0.0"
     inkscape:pageshadow="2"
     inkscape:zoom="1.8388462"
     inkscape:cx="-47.525241"
     inkscape:cy="-57.559946"
     inkscape:document-units="px"
     inkscape:current-layer="layer1"
     showgrid="true"
     showguides="true"
     fit-margin-top="1"
     fit-margin-left="1"
     fit-margin-right="1"
     fit-margin-bottom="1"
     inkscape:window-width="1600"
     inkscape:window-height="847"
     inkscape:window-x="0"
     inkscape:window-y="0"
     inkscape:window-maximized="1">
    <inkscape:grid
       type="xygrid"
       id="grid4140"
       originx="-238.1705"
       originy="-680.60953" />
  </sodipodi:namedview>
  <metadata
     id="metadata7">
    <rdf:RDF>
      <cc:Work
         rdf:about="">
        <dc:format>image/svg+xml</dc:format>
        <dc:type
           rdf:resource="http://purl.org/dc/dcmitype/StillImage" />
        <dc:title></dc:title>
      </cc:Work>
    </rdf:RDF>
  </metadata>
  <g
     inkscape:label="Layer 1"
     inkscape:groupmode="layer"
     id="layer1"
     transform="translate(-238.1705,-287.7102)">
    <g
       id="g4144">
      <path
         style="opacity:1;fill:#ff5555;fill-opacity:1;fill-rule:nonzero;stroke:#501616;stroke-width:1.70000005;stroke-linecap:round;stroke-linejoin:round;stroke-miterlimit:4;stroke-dasharray:none;stroke-opacity:1"
         d="m 269.15625,292.125 a 25.559505,25.287596 0 0 0 -20.40234,8.74414 l -0.19336,0.22266 a 25.559505,25.287596 0 0 0 -0.9336,31.39062 l 17.85743,34.87696 5.11914,0 17.5996,-34.3711 a 25.559505,25.287596 0 0 0 -3.45703,-34.78906 25.559505,25.287596 0 0 0 -15.58984,-6.07422 z m -0.0957,12.91602 a 11.464926,10.373857 0 0 1 6.99218,2.49218 11.464926,10.373857 0 0 1 1.25782,14.60547 11.464926,10.373857 0 0 1 -16.13672,1.17969 11.464926,10.373857 0 0 1 -1.35156,-14.59766 l 0.0859,-0.0918 a 11.464926,10.373857 0 0 1 9.15235,-3.58789 z"
         id="path4138"
         inkscape:connector-curvature="0" />
    </g>
  </g>
</svg>
