<?xml version="1.0" encoding="UTF-8" standalone="no"?>
<svg
   xmlns:dc="http://purl.org/dc/elements/1.1/"
   xmlns:cc="http://creativecommons.org/ns#"
   xmlns:rdf="http://www.w3.org/1999/02/22-rdf-syntax-ns#"
   xmlns:svg="http://www.w3.org/2000/svg"
   xmlns="http://www.w3.org/2000/svg"
   version="1.1"
   id="svg2"
   viewBox="0 0 521.00001 410.99999"
   height="115.99333mm"
   width="147.03778mm">
  <defs
     id="defs4" />
  <metadata
     id="metadata7">
    <rdf:RDF>
      <cc:Work
         rdf:about="">
        <dc:format>image/svg+xml</dc:format>
        <dc:type
           rdf:resource="http://purl.org/dc/dcmitype/StillImage" />
        <dc:title></dc:title>
      </cc:Work>
    </rdf:RDF>
  </metadata>
  <g
     transform="translate(-89.5,-41.862225)"
     id="layer1">
    <path
       id="rect4154"
       d="m 100,102.36223 500,0 0,20 -500,0 z"
       style="fill:#ffffff;fill-rule:evenodd;stroke:#ffffff;stroke-width:1px;stroke-linecap:butt;stroke-linejoin:miter;stroke-opacity:1" />
    <path
       id="rect4158"
       d="m 340,52.362225 20,0 0,399.999995 -20,0 z"
       style="fill:#ffffff;fill-rule:evenodd;stroke:#ffffff;stroke-width:1px;stroke-linecap:butt;stroke-linejoin:miter;stroke-opacity:1" />
    <path
       id="rect4162"
       d="m 120,286.36133 0,10 0.0996,0 c -0.0651,0.32308 -0.0996,0.65717 -0.0996,1 0,2.77 2.23,5 5,5 l 170,0 c 2.77,0 5,-2.23 5,-5 0,-0.34283 -0.0345,-0.67692 -0.0996,-1 l 0.0996,0 0,-10 -180,0 z"
       style="fill:#ffffff;fill-rule:evenodd;stroke:#ffffff;stroke-width:1px;stroke-linecap:butt;stroke-linejoin:miter;stroke-opacity:1" />
    <path
       d="M 120.00817,286.36285 210,121.33517 299.99183,286.36285"
       style="fill:none;fill-rule:evenodd;stroke:#ffffff;stroke-width:1.01554394px;stroke-linecap:butt;stroke-linejoin:miter;stroke-opacity:1"
       id="path4169" />
    <path
       id="path4272"
       d="m 490.5774,205.7541 c -1.7655,-0.005 -3.4778,0.0324 -4.6396,0.11727 -9.0305,0.65943 -16.4066,2.92775 -22.974,7.06502 -6.1101,3.84918 -9.5473,8.00753 -11.0135,13.32358 -0.3005,1.08981 -0.3442,1.58972 -0.3479,3.99691 0,2.19464 0.052,2.97032 0.2719,3.83362 0.6618,2.59471 1.7909,4.82751 3.5775,7.07519 5.5078,6.92912 15.1744,11.67927 26.8066,13.17275 1.0962,0.14073 2.149,0.27647 2.3398,0.30149 l 0.3467,0.0454 -0.04,3.59398 -0.04,3.59378 -6.5415,0.0253 -6.5415,0.0251 -0.3956,0.29603 -0.3955,0.29602 0,2.836 c 0,1.9931 0.054,2.91114 0.1832,3.08903 0.3765,0.52024 0.4889,0.52814 7.3979,0.52814 l 6.3697,0 0,4.11041 0,4.11023 0.4482,0.28226 0.448,0.28207 4.6994,0 4.6995,0 0.448,-0.28207 0.4482,-0.28226 0,-4.10721 0,-4.1074 6.6056,-0.0272 6.6053,-0.0272 0.3701,-0.27076 0.3698,-0.27095 0,-2.97647 c 0,-2.78649 -0.019,-2.99126 -0.2928,-3.20461 l -0.2932,-0.22796 -6.6439,-0.0483 -6.6442,-0.0483 -0.04,-3.59378 -0.04,-3.59398 0.3467,-0.0492 c 0.1908,-0.0271 1.0711,-0.13926 1.9565,-0.24945 9.7727,-1.21632 18.0725,-4.5979 23.9217,-9.74621 3.4602,-3.04569 5.792,-6.53294 6.7256,-10.05845 0.6599,-2.4917 0.6984,-5.73762 0.097,-8.15464 -1.2838,-5.15502 -4.7932,-9.44601 -10.8907,-13.3168 -3.6658,-2.32707 -6.566,-3.66806 -10.7314,-4.96173 -3.5856,-1.11357 -6.9349,-1.77808 -10.9614,-2.17493 -1.3877,-0.13678 -3.7453,-0.21347 -6.0151,-0.21985 z m -0.1078,7.03823 c 4.315,-0.006 8.6008,0.58002 12.2276,1.71091 7.1537,2.23064 12.868,6.54958 14.7362,11.13753 0.7586,1.86285 0.8521,2.38595 0.8501,4.76092 0,1.92908 -0.048,2.3648 -0.3539,3.32095 -1.2184,3.8081 -4.1405,6.98551 -8.9325,9.7134 -4.3868,2.49724 -10.2055,4.11256 -15.6393,4.34157 -2.6184,0.11036 -3.1651,0.11551 -4.8905,0.0455 -4.9305,-0.20023 -9.8206,-1.28706 -13.7882,-3.06453 -1.7245,-0.77256 -4.711,-2.5572 -6.0876,-3.63752 -5.18,-4.06522 -7.0573,-9.44956 -5.1663,-14.81824 0.5116,-1.4523 0.943,-2.20391 2.1358,-3.72068 3.7312,-4.74436 11.0535,-8.35867 19.0656,-9.41096 1.9142,-0.25141 3.8816,-0.37619 5.843,-0.3788 z"
       style="fill:#ffffff" />
    <path
       id="path4272-7"
       d="m 224.50514,207.41449 -0.32799,0.28053 c -0.45632,0.39024 -0.50023,0.81979 -0.45304,4.43643 0.0436,3.34371 0.0726,3.49693 0.7109,3.76529 0.19002,0.0799 1.57535,0.12621 3.76912,0.12621 l 3.46836,0 -1.22834,1.14976 c -0.67569,0.63237 -2.91672,2.70216 -4.97975,4.5995 l -3.75091,3.44974 -1.64494,-1.00396 c -2.79905,-1.70854 -6.09626,-3.08521 -9.20118,-3.84175 -9.12373,-2.2231 -18.87294,-0.83506 -26.30856,3.7457 -6.99814,4.31125 -12.03273,10.67975 -13.95329,17.65062 -0.756,2.74402 -0.90063,3.97898 -0.89934,7.68189 7.9e-4,3.61393 0.10921,4.55276 0.84966,7.37025 2.16613,8.24225 8.90011,15.79974 17.55269,19.69932 3.52914,1.59052 6.72566,2.4181 10.88581,2.81843 1.53864,0.14807 6.19635,0.0543 7.83706,-0.15776 4.68843,-0.60613 9.19031,-2.16104 12.92663,-4.46476 2.1354,-1.31664 3.20933,-2.1199 5.0781,-3.79777 5.59637,-5.02468 8.7464,-10.75987 9.75132,-17.75311 0.20778,-1.44585 0.20798,-6.10058 2.6e-4,-7.54714 -0.68071,-4.74036 -2.33196,-8.8656 -5.08634,-12.70747 -0.58942,-0.82214 -1.07159,-1.52332 -1.07159,-1.55812 0,-0.0347 2.24292,-2.13239 4.98426,-4.66124 l 4.98424,-4.59788 0,3.33988 0,3.33987 0.37342,0.34481 0.37367,0.34455 3.78636,0 c 4.13909,0 4.36522,-0.0326 4.65225,-0.6723 0.10912,-0.24329 0.13901,-3.01745 0.11382,-10.5701 l -0.0339,-10.24006 -0.35869,-0.28468 -0.35845,-0.28468 -11.22078,0 -11.2208,0 z m -22.25137,20.53331 c 4.45547,0.0103 8.89616,1.1451 12.50129,3.35623 1.59317,0.97713 2.60187,1.76968 4.23192,3.32469 1.84112,1.75636 2.94639,3.18656 4.07491,5.27387 1.01155,1.87093 1.5308,3.25121 1.91576,5.09193 1.58497,7.57837 -0.93075,14.86522 -6.9085,20.01002 -3.96375,3.41144 -8.26105,5.2498 -13.39215,5.72945 -5.06224,0.4732 -10.26758,-0.5501 -14.20314,-2.79241 -2.58527,-1.47296 -5.62553,-4.08534 -7.31337,-6.28407 -1.52838,-1.99097 -2.73733,-4.35863 -3.37127,-6.60167 -1.66048,-5.87508 -0.64836,-12.19634 2.72827,-17.04003 2.29348,-3.29 6.07398,-6.41934 9.69965,-8.02897 3.09699,-1.37495 6.57127,-2.04705 10.03663,-2.03904 z"
       style="fill:#ffffff" />
    <path
       id="rect4162-3"
       d="m 400,286.36133 0,10 0.0996,0 c -0.0651,0.32308 -0.0996,0.65717 -0.0996,1 0,2.77 2.23,5 5,5 l 170,0 c 2.77,0 5,-2.23 5,-5 0,-0.34283 -0.0345,-0.67692 -0.0996,-1 l 0.0996,0 0,-10 -180,0 z"
       style="fill:#ffffff;fill-rule:evenodd;stroke:#ffffff;stroke-width:1px;stroke-linecap:butt;stroke-linejoin:miter;stroke-opacity:1" />
    <path
       d="M 400.00817,286.36285 490,121.33517 579.99183,286.36285"
       style="fill:none;fill-rule:evenodd;stroke:#ffffff;stroke-width:1.01554394px;stroke-linecap:butt;stroke-linejoin:miter;stroke-opacity:1"
       id="path4169-5" />
    <path
       id="path4383"
       d="m 370,107.36222 a 20,25 0 0 1 -20,25 20,25 0 0 1 -20,-25 20,25 0 0 1 20,-24.999999 20,25 0 0 1 20,24.999999 z"
       style="fill:none;fill-opacity:1;stroke:#ffffff;stroke-width:2;stroke-linejoin:miter;stroke-miterlimit:4;stroke-dasharray:none;stroke-opacity:0" />
    <path
       id="path4385"
       d="M 379.91423,110.00508 A 29.914227,29.557085 0 0 1 350,139.56217 29.914227,29.557085 0 0 1 320.08577,110.00508 29.914227,29.557085 0 0 1 350,80.447996 29.914227,29.557085 0 0 1 379.91423,110.00508 Z"
       style="fill:#ffffff;fill-opacity:1;stroke:#ffffff;stroke-width:2.17154598;stroke-linejoin:miter;stroke-miterlimit:4;stroke-dasharray:none;stroke-opacity:0" />
    <path
       id="rect4396"
       d="m 160,432.36221 380,0 c 5.54,0 10,4.46 10,10 0,5.54 -4.46,10 -10,10 l -380,0 c -5.54,0 -10,-4.46 -10,-10 0,-5.54 4.46,-10 10,-10 z"
       style="fill:#ffffff;fill-rule:evenodd;stroke:#ffffff;stroke-width:1px;stroke-linecap:butt;stroke-linejoin:miter;stroke-opacity:1" />
    <path
       id="rect4398"
       d="m 600,102.36223 c 5.54,0 10,4.46 10,10 0,5.54 -4.46,10 -10,10 -5.54,0 -10,-4.46 -10,-10 0,-5.54 4.46,-10 10,-10 z"
       style="fill:#ffffff;fill-rule:evenodd;stroke:#ffffff;stroke-width:1px;stroke-linecap:butt;stroke-linejoin:miter;stroke-opacity:1" />
    <path
       id="rect4403"
       d="m 100,102.36223 c 5.54,0 10,4.46 10,10 0,5.54 -4.46,10 -10,10 -5.54,0 -10,-4.46 -10,-10 0,-5.54 4.46,-10 10,-10 z"
       style="fill:#ffffff;fill-rule:evenodd;stroke:#ffffff;stroke-width:1px;stroke-linecap:butt;stroke-linejoin:miter;stroke-opacity:1" />
    <path
       id="rect4415"
       d="m 345,42.362225 10,0 c 2.77,0 5,2.23 5,5 l 0,10 c 0,2.77 -2.23,5 -5,5 l -10,0 c -2.77,0 -5,-2.23 -5,-5 l 0,-10 c 0,-2.77 2.23,-5 5,-5 z"
       style="fill:#ffffff;fill-rule:evenodd;stroke:#ffffff;stroke-width:1px;stroke-linecap:butt;stroke-linejoin:miter;stroke-opacity:1" />
  </g>
</svg>
